<svg width="24" height="24" viewBox="0 0 24 24" fill="none" xmlns="http://www.w3.org/2000/svg">
<path d="M12 22C17.523 22 22 17.523 22 12C22 6.477 17.523 2 12 2C7.522 2 3.774 4.943 2.5 9H5" stroke="#D9FC23" stroke-width="1.5" stroke-linecap="round" stroke-linejoin="round"/>
<path d="M12 8V12L14 14M2 12C2 12.3367 2.015 12.67 2.045 13M9 22C8.65988 21.8873 8.32607 21.7565 8 21.608M3.21 17C3.01636 16.6255 2.84441 16.2402 2.695 15.846M4.831 19.306C5.13767 19.636 5.46333 19.9437 5.808 20.229" stroke="#D9FC23" stroke-width="1.5" stroke-linecap="round" stroke-linejoin="round"/>
</svg>
