<svg width="29" height="29" viewBox="0 0 29 29" fill="none" xmlns="http://www.w3.org/2000/svg">
<path d="M12.6065 18.0122L20.568 12.5987C20.7928 12.4318 20.9933 12.2346 21.1636 12.0134C21.7461 11.2565 21.7345 10.2066 21.3653 9.32839C20.5438 7.37417 18.5943 6 16.32 6C15.1973 6 14.1538 6.3349 13.2861 6.90914L4.79065 12.908" stroke="#98AF1F" stroke-width="1.5" stroke-linecap="round" stroke-linejoin="round"/>
<path d="M7.19422 16.208C7.19422 17.0432 7.63645 18.7032 9.64301 19.1587C10.8502 19.4328 14.3672 18.2767 12.6464 14.9263C10.9257 11.576 6.78185 11.5585 5.09623 12.6811C4.06613 13.3068 2.06563 15.2597 2.44489 17.8556C2.57951 19.4285 3.81797 22.6196 7.6949 22.8021H19.5645C20.6706 22.7144 20.8992 22.554 21.7418 21.9075C22.8752 20.8897 24.7682 19.0183 25.8678 17.7863C26.1054 17.5201 26.3619 17.2461 26.3948 16.8909C26.5696 14.9989 23.6986 15.8184 21.6189 15.5929" stroke="#98AF1F" stroke-width="1.5" stroke-linecap="round" stroke-linejoin="round"/>
</svg>
