<svg width="24" height="24" viewBox="0 0 24 24" fill="none" xmlns="http://www.w3.org/2000/svg">
<path d="M19.7005 9.79995C17.495 9.10475 14.8473 8.69995 12.0005 8.69995C9.15374 8.69995 6.50604 9.10475 4.30054 9.79995V13.65C6.50604 12.9548 9.15374 12.55 12.0005 12.55C14.8473 12.55 17.495 12.9548 19.7005 13.65V9.79995Z" stroke="#98AF1F" stroke-width="2" stroke-linejoin="round"/>
<path d="M19.7005 13.1V15.3253C19.7005 17.6694 18.5653 19.8419 16.7096 21.0475L15.1696 22.0485C14.2292 22.6692 13.1273 23.0001 12.0005 23.0001C10.8738 23.0001 9.7718 22.6692 8.83141 22.0485L7.29141 21.0475C5.43571 19.843 4.30051 17.6705 4.30051 15.3253V13.1M19.7005 9.8L20.9391 9.1477C22.3284 8.238 23.0225 7.7815 23.0005 7.1303C22.9774 6.4791 22.2525 6.0831 20.8038 5.2911L15.603 2.4498C13.8353 1.4829 12.952 1 12.0005 1C11.049 1 10.1657 1.484 8.39801 2.4498L3.19831 5.29C1.74851 6.0831 1.02251 6.4791 1.00051 7.1303C0.978508 7.7815 1.67151 8.2369 3.06081 9.1477L4.30051 9.8" stroke="#98AF1F" stroke-width="2" stroke-linecap="round"/>
</svg>
