<svg width="26" height="24" viewBox="0 0 26 24" fill="none" xmlns="http://www.w3.org/2000/svg">
<path d="M20.2005 9.39954C20.2005 9.39954 13.0005 14.1995 13.0005 22.5995M9.8193 10.8191C8.8685 11.5288 7.69392 11.8723 6.51056 11.7868C5.3272 11.7013 4.2142 11.1925 3.3753 10.3535C0.466501 7.44594 1.0473 1.04754 1.0473 1.04754C1.0473 1.04754 7.4469 0.465538 10.3545 3.37434C10.9021 3.91978 11.3135 4.58655 11.5553 5.32063C11.7972 6.0547 11.8627 6.83543 11.7465 7.59954" stroke="#98AF1F" stroke-width="2" stroke-linecap="round" stroke-linejoin="round"/>
<path d="M16.5573 12.7812C15.7914 11.948 15.3771 10.851 15.401 9.7194C15.4249 8.58785 15.8852 7.50933 16.6857 6.70921C19.2705 4.12441 24.9585 4.64161 24.9585 4.64161C24.9585 4.64161 25.4745 10.3296 22.8897 12.9144C22.4604 13.3445 21.9462 13.6806 21.38 13.9013C20.8137 14.1219 20.2077 14.2223 19.6005 14.196M5.80054 5.79961C5.80054 5.79961 13.0005 11.7996 13.0005 22.5996" stroke="#98AF1F" stroke-width="2" stroke-linecap="round" stroke-linejoin="round"/>
</svg>
