<svg width="25" height="25" viewBox="0 0 25 25" fill="none" xmlns="http://www.w3.org/2000/svg">
<path d="M12.1612 5.78767L13.9444 4.00447C15.952 1.99687 18.5788 1.16407 21.3604 1.02847C22.4428 0.975671 22.9828 0.949271 23.4172 1.38247C23.8504 1.81687 23.8252 2.35687 23.7712 3.43927C23.6356 6.22087 22.8028 8.84767 20.7952 10.8553L19.0132 12.6397C17.5444 14.1073 17.1268 14.5249 17.4352 16.1173C17.74 17.3341 18.034 18.5113 17.1496 19.3957C16.0768 20.4697 15.0976 20.4697 14.0248 19.3957L5.40523 10.7761C4.33123 9.70327 4.33123 8.72407 5.40523 7.65127C6.28963 6.76687 7.46683 7.06087 8.68363 7.36567C10.276 7.67407 10.6936 7.25647 12.1612 5.78767Z" stroke="#98AF1F" stroke-width="2" stroke-linejoin="round"/>
<path d="M18.3951 6.39966H18.4064" stroke="#98AF1F" stroke-width="2.66667" stroke-linecap="round" stroke-linejoin="round"/>
<path d="M1 23.7997L7 17.7997M8.2 23.7997L10.6 21.3997M1 16.5997L3.4 14.1997" stroke="#98AF1F" stroke-width="2" stroke-linecap="round"/>
</svg>
